<svg width="200" height="60" viewBox="0 0 200 60" fill="none" xmlns="http://www.w3.org/2000/svg">
  <path d="M20 10C14.4772 10 10 14.4772 10 20V40C10 45.5228 14.4772 50 20 50H40C45.5228 50 50 45.5228 50 40V20C50 14.4772 45.5228 10 40 10H20Z" fill="#3B82F6"/>
  <path d="M30 18C25.5817 18 22 21.5817 22 26V34C22 38.4183 25.5817 42 30 42C34.4183 42 38 38.4183 38 34V26C38 21.5817 34.4183 18 30 18Z" fill="white"/>
  <path d="M30 24C28.8954 24 28 24.8954 28 26C28 27.1046 28.8954 28 30 28C31.1046 28 32 27.1046 32 26C32 24.8954 31.1046 24 30 24Z" fill="#3B82F6"/>
  <path d="M30 32C28.8954 32 28 32.8954 28 34C28 35.1046 28.8954 36 30 36C31.1046 36 32 35.1046 32 34C32 32.8954 31.1046 32 30 32Z" fill="#3B82F6"/>
  <path d="M65 20H70.5C73.5376 20 76 22.4624 76 25.5C76 28.5376 73.5376 31 70.5 31H65V20ZM70.5 28C71.8807 28 73 26.8807 73 25.5C73 24.1193 71.8807 23 70.5 23H68V28H70.5Z" fill="#1F2937"/>
  <path d="M78 20H81V28C81 29.6569 82.3431 31 84 31C85.6569 31 87 29.6569 87 28V20H90V28C90 31.3137 87.3137 34 84 34C80.6863 34 78 31.3137 78 28V20Z" fill="#1F2937"/>
  <path d="M97 20H100V31H107V34H97V20Z" fill="#1F2937"/>
  <path d="M113 20H116V34H113V20Z" fill="#1F2937"/>
  <path d="M123 20H126V28.5L132 20H135V34H132V25.5L126 34H123V20Z" fill="#1F2937"/>
  <path d="M142 20H145L150 34H147L146 31H141L140 34H137L142 20ZM145 28L143.5 24L142 28H145Z" fill="#1F2937"/>
  <path d="M155 20H162C164.209 20 166 21.7909 166 24C166 25.8638 164.7252 27.4299 163 27.9V28C163.5 28 164 28.5 164.2 29L166 34H163L161.5 29.5C161.2 28.5 160.5 28 159.5 28H158V34H155V20ZM161.5 25C162.328 25 163 24.3284 163 23.5C163 22.6716 162.328 22 161.5 22H158V25H161.5Z" fill="#1F2937"/>
  <path d="M172 20H175V34H172V20Z" fill="#1F2937"/>
  <path d="M182 20H185V31H192V34H182V20Z" fill="#1F2937"/>
  <path d="M198 20H195V  fill="#1F2937"/>
  <path d="M182 20H185V31H192V34H182V20Z" fill="#1F2937"/>
  <path d="M198 20H195V34H192V31H195V20H198V31Z" fill="#1F2937"/>
</svg>

